<svg id="Layer_1" data-name="Layer 1" xmlns="http://www.w3.org/2000/svg" viewBox="0 0 32 32"><defs><style>.cls-1{fill:none;stroke:#fff;stroke-linejoin:round;stroke-width:0.72px;}</style></defs><g id="presenter"><path class="cls-1" d="M6.92,16.92a11.36,11.36,0,0,1,6.53-4.37,6.08,6.08,0,1,1,4.94,0,11.36,11.36,0,0,1,6.53,4.37M19.11,27.1a4.5,4.5,0,1,0-6.37,0A4.51,4.51,0,0,0,19.11,27.1ZM14.8,28.25l1.12-4.33m3.19-3.17-3.19,3.17m0,0-3.85-2.26m14.86-.27V16.92h-22v4.47m0,5v4.53h22V26.39"/><path class="cls-1" d="M7.43,23.92a2.5,2.5,0,1,1-2.5-2.5A2.5,2.5,0,0,1,7.43,23.92Zm19.5-2.5a2.5,2.5,0,1,0,2.5,2.5A2.49,2.49,0,0,0,26.93,21.42Z"/></g></svg>