<svg xmlns="http://www.w3.org/2000/svg" id="Layer_1" data-name="Layer 1" viewBox="0 0 32 32"><defs><style>.cls-1{fill:#fff}.cls-2{fill:none;stroke:#fff;stroke-linecap:round;stroke-linejoin:round;stroke-width:.72px}</style></defs><g id="docker"><circle cx="12" cy="22" r=".75" class="cls-1"/><path d="M28.11,13.51A3.43,3.43,0,0,1,31,15.2a3.42,3.42,0,0,1-3,1.7H27.5C27.14,21,20.1,27,11.31,27A10.18,10.18,0,0,1,1,16.9V16H25.7a3.36,3.36,0,0,1,.65-5.45,3.37,3.37,0,0,1,1.76,3h0M4,24a22.2,22.2,0,0,0,6-.7M22,12H18v4h4Zm-4,0H14v4h4Zm-4,0H10v4h4Zm4-4H14v4h4Zm0-4H14V8h4ZM14,8H10v4h4Zm-4,4H6v4h4Z" class="cls-2"/></g></svg>