<svg xmlns="http://www.w3.org/2000/svg" id="Layer_1" data-name="Layer 1" viewBox="0 0 32 32"><defs><style>.cls-1{fill:none;stroke:#fff;stroke-linejoin:round;stroke-width:.72px}</style></defs><path id="tools" d="M17.85,10.77l9.31-9.31a2.4,2.4,0,0,1,3.38,0h0a2.38,2.38,0,0,1,0,3.37l-9.31,9.31m-1.69-1.68,9.28-9.29M5.19,26.81l7.73-7.74M1.24,29,3,30.76l3.23-2.94-2-2Zm18.38-6.11a6,6,0,0,0,8.21,7.51h0l-4-4a2,2,0,0,1,0-2.82h0a2,2,0,0,1,2.83,0l4,4h0a6,6,0,0,0-7.51-8.22L12.63,8.85A6,6,0,0,0,4.41,1.34h0l4,4a2,2,0,0,1,0,2.83h0a2,2,0,0,1-2.82,0l-4-4h0a6,6,0,0,0,7.51,8.21Z" class="cls-1"/></svg>